<mxfile host="drawio-plugin" modified="2022-03-17T06:09:21.596Z" agent="5.0 (Windows NT 6.2; Win64; x64) AppleWebKit/537.36 (KHTML, like Gecko) Chrome/89.0.4389.114 Safari/537.36" etag="MQvvO98h9OKAXtRyaXQT" version="15.5.4" type="embed"><diagram id="C5RBs43oDa-KdzZeNtuy" name="Page-1"><mxGraphModel dx="2687" dy="781" grid="0" gridSize="10" guides="1" tooltips="1" connect="1" arrows="1" fold="1" page="0" pageScale="1" pageWidth="827" pageHeight="1169" background="none" math="0" shadow="0"><root><mxCell id="WIyWlLk6GJQsqaUBKTNV-0"/><mxCell id="WIyWlLk6GJQsqaUBKTNV-1" parent="WIyWlLk6GJQsqaUBKTNV-0"/><mxCell id="A3fkaGjAUf6eBdhboRFx-56" style="edgeStyle=orthogonalEdgeStyle;rounded=0;orthogonalLoop=1;jettySize=auto;html=1;exitX=0.5;exitY=1;exitDx=0;exitDy=0;endArrow=classic;endFill=1;" parent="WIyWlLk6GJQsqaUBKTNV-1" source="WIyWlLk6GJQsqaUBKTNV-3" target="A3fkaGjAUf6eBdhboRFx-0" edge="1"><mxGeometry relative="1" as="geometry"/></mxCell><mxCell id="WIyWlLk6GJQsqaUBKTNV-3" value="main" style="rounded=1;whiteSpace=wrap;html=1;fontSize=12;glass=0;strokeWidth=1;shadow=0;" parent="WIyWlLk6GJQsqaUBKTNV-1" vertex="1"><mxGeometry x="-31" y="104" width="120" height="40" as="geometry"/></mxCell><mxCell id="A3fkaGjAUf6eBdhboRFx-43" style="edgeStyle=orthogonalEdgeStyle;rounded=0;orthogonalLoop=1;jettySize=auto;html=1;exitX=0;exitY=0.5;exitDx=0;exitDy=0;entryX=0.5;entryY=0;entryDx=0;entryDy=0;endArrow=classic;endFill=1;" parent="WIyWlLk6GJQsqaUBKTNV-1" source="A3fkaGjAUf6eBdhboRFx-0" target="A3fkaGjAUf6eBdhboRFx-5" edge="1"><mxGeometry relative="1" as="geometry"/></mxCell><mxCell id="A3fkaGjAUf6eBdhboRFx-44" style="edgeStyle=orthogonalEdgeStyle;rounded=0;orthogonalLoop=1;jettySize=auto;html=1;exitX=1;exitY=0.5;exitDx=0;exitDy=0;entryX=0.5;entryY=0;entryDx=0;entryDy=0;endArrow=classic;endFill=1;" parent="WIyWlLk6GJQsqaUBKTNV-1" source="A3fkaGjAUf6eBdhboRFx-0" target="A3fkaGjAUf6eBdhboRFx-3" edge="1"><mxGeometry relative="1" as="geometry"/></mxCell><mxCell id="A3fkaGjAUf6eBdhboRFx-64" style="edgeStyle=orthogonalEdgeStyle;rounded=0;orthogonalLoop=1;jettySize=auto;html=1;endArrow=classic;endFill=1;entryX=0.5;entryY=0;entryDx=0;entryDy=0;" parent="WIyWlLk6GJQsqaUBKTNV-1" source="A3fkaGjAUf6eBdhboRFx-0" target="A3fkaGjAUf6eBdhboRFx-66" edge="1"><mxGeometry relative="1" as="geometry"><mxPoint x="29" y="682.4444056919642" as="targetPoint"/></mxGeometry></mxCell><mxCell id="A3fkaGjAUf6eBdhboRFx-0" value="Start Menu" style="whiteSpace=wrap;html=1;rounded=1;glass=0;strokeWidth=1;shadow=0;" parent="WIyWlLk6GJQsqaUBKTNV-1" vertex="1"><mxGeometry x="-31" y="169" width="120" height="60" as="geometry"/></mxCell><mxCell id="A3fkaGjAUf6eBdhboRFx-45" style="edgeStyle=orthogonalEdgeStyle;rounded=0;orthogonalLoop=1;jettySize=auto;html=1;exitX=0.5;exitY=1;exitDx=0;exitDy=0;endArrow=classic;endFill=1;" parent="WIyWlLk6GJQsqaUBKTNV-1" source="A3fkaGjAUf6eBdhboRFx-3" target="A3fkaGjAUf6eBdhboRFx-14" edge="1"><mxGeometry relative="1" as="geometry"><Array as="points"><mxPoint x="242" y="340"/><mxPoint x="204" y="340"/></Array></mxGeometry></mxCell><mxCell id="A3fkaGjAUf6eBdhboRFx-46" style="edgeStyle=orthogonalEdgeStyle;rounded=0;orthogonalLoop=1;jettySize=auto;html=1;exitX=0.5;exitY=1;exitDx=0;exitDy=0;entryX=0.5;entryY=0;entryDx=0;entryDy=0;endArrow=classic;endFill=1;" parent="WIyWlLk6GJQsqaUBKTNV-1" edge="1"><mxGeometry relative="1" as="geometry"><mxPoint x="242" y="328" as="sourcePoint"/><mxPoint x="343" y="353" as="targetPoint"/><Array as="points"><mxPoint x="242" y="340"/><mxPoint x="343" y="340"/></Array></mxGeometry></mxCell><mxCell id="A3fkaGjAUf6eBdhboRFx-3" value="Receipt Lookup" style="whiteSpace=wrap;html=1;rounded=1;glass=0;strokeWidth=1;shadow=0;" parent="WIyWlLk6GJQsqaUBKTNV-1" vertex="1"><mxGeometry x="182" y="269" width="120" height="60" as="geometry"/></mxCell><mxCell id="A3fkaGjAUf6eBdhboRFx-32" style="edgeStyle=orthogonalEdgeStyle;rounded=0;orthogonalLoop=1;jettySize=auto;html=1;exitX=0.5;exitY=1;exitDx=0;exitDy=0;endArrow=classic;endFill=1;" parent="WIyWlLk6GJQsqaUBKTNV-1" edge="1"><mxGeometry relative="1" as="geometry"><mxPoint x="-377" y="347" as="targetPoint"/><mxPoint x="-222" y="309" as="sourcePoint"/><Array as="points"><mxPoint x="-222" y="330"/><mxPoint x="-377" y="330"/></Array></mxGeometry></mxCell><mxCell id="A3fkaGjAUf6eBdhboRFx-33" style="edgeStyle=orthogonalEdgeStyle;rounded=0;orthogonalLoop=1;jettySize=auto;html=1;exitX=0.5;exitY=1;exitDx=0;exitDy=0;entryX=0.5;entryY=0;entryDx=0;entryDy=0;endArrow=classic;endFill=1;entryPerimeter=0;" parent="WIyWlLk6GJQsqaUBKTNV-1" edge="1"><mxGeometry relative="1" as="geometry"><mxPoint x="-222" y="312" as="sourcePoint"/><mxPoint x="-110" y="350" as="targetPoint"/><Array as="points"><mxPoint x="-222" y="330"/><mxPoint x="-110" y="330"/></Array></mxGeometry></mxCell><mxCell id="A3fkaGjAUf6eBdhboRFx-59" style="edgeStyle=orthogonalEdgeStyle;rounded=0;orthogonalLoop=1;jettySize=auto;html=1;entryX=0;entryY=0.5;entryDx=0;entryDy=0;endArrow=classic;endFill=1;" parent="WIyWlLk6GJQsqaUBKTNV-1" source="A3fkaGjAUf6eBdhboRFx-5" target="A3fkaGjAUf6eBdhboRFx-19" edge="1"><mxGeometry relative="1" as="geometry"/></mxCell><mxCell id="A3fkaGjAUf6eBdhboRFx-5" value="Order" style="whiteSpace=wrap;html=1;rounded=1;glass=0;strokeWidth=1;shadow=0;" parent="WIyWlLk6GJQsqaUBKTNV-1" vertex="1"><mxGeometry x="-282" y="250" width="120" height="60" as="geometry"/></mxCell><mxCell id="A3fkaGjAUf6eBdhboRFx-34" style="edgeStyle=orthogonalEdgeStyle;rounded=0;orthogonalLoop=1;jettySize=auto;html=1;exitX=0.5;exitY=1;exitDx=0;exitDy=0;entryX=0.5;entryY=0;entryDx=0;entryDy=0;endArrow=classic;endFill=1;" parent="WIyWlLk6GJQsqaUBKTNV-1" source="A3fkaGjAUf6eBdhboRFx-9" target="A3fkaGjAUf6eBdhboRFx-18" edge="1"><mxGeometry relative="1" as="geometry"><Array as="points"><mxPoint x="-379" y="417"/><mxPoint x="-465" y="417"/></Array></mxGeometry></mxCell><mxCell id="A3fkaGjAUf6eBdhboRFx-35" style="edgeStyle=orthogonalEdgeStyle;rounded=0;orthogonalLoop=1;jettySize=auto;html=1;exitX=0.5;exitY=1;exitDx=0;exitDy=0;endArrow=classic;endFill=1;" parent="WIyWlLk6GJQsqaUBKTNV-1" source="A3fkaGjAUf6eBdhboRFx-9" target="A3fkaGjAUf6eBdhboRFx-17" edge="1"><mxGeometry relative="1" as="geometry"><Array as="points"><mxPoint x="-379" y="417"/><mxPoint x="-327" y="417"/></Array></mxGeometry></mxCell><mxCell id="A3fkaGjAUf6eBdhboRFx-9" value="Combo" style="whiteSpace=wrap;html=1;rounded=1;glass=0;strokeWidth=1;shadow=0;" parent="WIyWlLk6GJQsqaUBKTNV-1" vertex="1"><mxGeometry x="-439" y="348" width="120" height="60" as="geometry"/></mxCell><mxCell id="A3fkaGjAUf6eBdhboRFx-38" style="edgeStyle=orthogonalEdgeStyle;rounded=0;orthogonalLoop=1;jettySize=auto;html=1;exitX=0.5;exitY=1;exitDx=0;exitDy=0;endArrow=classic;endFill=1;" parent="WIyWlLk6GJQsqaUBKTNV-1" source="A3fkaGjAUf6eBdhboRFx-11" edge="1"><mxGeometry relative="1" as="geometry"><mxPoint x="-111" y="442.3333435058594" as="targetPoint"/><Array as="points"><mxPoint x="-111" y="442"/><mxPoint x="-111" y="442"/></Array></mxGeometry></mxCell><mxCell id="A3fkaGjAUf6eBdhboRFx-60" style="edgeStyle=orthogonalEdgeStyle;rounded=0;orthogonalLoop=1;jettySize=auto;html=1;entryX=1;entryY=0.5;entryDx=0;entryDy=0;endArrow=classic;endFill=1;" parent="WIyWlLk6GJQsqaUBKTNV-1" source="A3fkaGjAUf6eBdhboRFx-11" target="A3fkaGjAUf6eBdhboRFx-5" edge="1"><mxGeometry relative="1" as="geometry"><Array as="points"><mxPoint x="-26" y="381"/><mxPoint x="-26" y="280"/></Array></mxGeometry></mxCell><mxCell id="A3fkaGjAUf6eBdhboRFx-11" value="List of Items" style="whiteSpace=wrap;html=1;rounded=1;glass=0;strokeWidth=1;shadow=0;" parent="WIyWlLk6GJQsqaUBKTNV-1" vertex="1"><mxGeometry x="-171" y="351" width="120" height="60" as="geometry"/></mxCell><mxCell id="A3fkaGjAUf6eBdhboRFx-47" style="edgeStyle=orthogonalEdgeStyle;rounded=0;orthogonalLoop=1;jettySize=auto;html=1;exitX=0.5;exitY=1;exitDx=0;exitDy=0;endArrow=none;endFill=0;" parent="WIyWlLk6GJQsqaUBKTNV-1" edge="1"><mxGeometry relative="1" as="geometry"><mxPoint x="226" y="510" as="targetPoint"/><mxPoint x="343" y="413" as="sourcePoint"/><Array as="points"><mxPoint x="343" y="510"/></Array></mxGeometry></mxCell><mxCell id="A3fkaGjAUf6eBdhboRFx-13" value="Display Receipt" style="whiteSpace=wrap;html=1;rounded=1;glass=0;strokeWidth=1;shadow=0;" parent="WIyWlLk6GJQsqaUBKTNV-1" vertex="1"><mxGeometry x="283" y="354" width="120" height="60" as="geometry"/></mxCell><mxCell id="A3fkaGjAUf6eBdhboRFx-51" style="edgeStyle=orthogonalEdgeStyle;rounded=0;orthogonalLoop=1;jettySize=auto;html=1;exitX=0.5;exitY=1;exitDx=0;exitDy=0;endArrow=none;endFill=0;" parent="WIyWlLk6GJQsqaUBKTNV-1" edge="1"><mxGeometry relative="1" as="geometry"><mxPoint x="186" y="511" as="targetPoint"/><mxPoint x="204" y="411" as="sourcePoint"/><Array as="points"><mxPoint x="186" y="411"/></Array></mxGeometry></mxCell><mxCell id="A3fkaGjAUf6eBdhboRFx-14" value="No receipt&amp;nbsp;" style="whiteSpace=wrap;html=1;rounded=1;glass=0;strokeWidth=1;shadow=0;" parent="WIyWlLk6GJQsqaUBKTNV-1" vertex="1"><mxGeometry x="144" y="354" width="120" height="60" as="geometry"/></mxCell><mxCell id="A3fkaGjAUf6eBdhboRFx-50" style="edgeStyle=orthogonalEdgeStyle;rounded=0;orthogonalLoop=1;jettySize=auto;html=1;exitX=0;exitY=0.5;exitDx=0;exitDy=0;entryX=0.844;entryY=1.011;entryDx=0;entryDy=0;entryPerimeter=0;endArrow=classic;endFill=1;" parent="WIyWlLk6GJQsqaUBKTNV-1" target="A3fkaGjAUf6eBdhboRFx-0" edge="1"><mxGeometry relative="1" as="geometry"><mxPoint x="233" y="510" as="sourcePoint"/></mxGeometry></mxCell><mxCell id="A3fkaGjAUf6eBdhboRFx-57" style="edgeStyle=orthogonalEdgeStyle;rounded=0;orthogonalLoop=1;jettySize=auto;html=1;entryX=0;entryY=0.5;entryDx=0;entryDy=0;endArrow=classic;endFill=1;" parent="WIyWlLk6GJQsqaUBKTNV-1" source="A3fkaGjAUf6eBdhboRFx-16" target="A3fkaGjAUf6eBdhboRFx-18" edge="1"><mxGeometry relative="1" as="geometry"><Array as="points"><mxPoint x="-566" y="611"/><mxPoint x="-566" y="463"/></Array></mxGeometry></mxCell><mxCell id="A3fkaGjAUf6eBdhboRFx-58" style="edgeStyle=orthogonalEdgeStyle;rounded=0;orthogonalLoop=1;jettySize=auto;html=1;entryX=1;entryY=0.5;entryDx=0;entryDy=0;endArrow=classic;endFill=1;" parent="WIyWlLk6GJQsqaUBKTNV-1" source="A3fkaGjAUf6eBdhboRFx-16" target="A3fkaGjAUf6eBdhboRFx-17" edge="1"><mxGeometry relative="1" as="geometry"/></mxCell><mxCell id="A3fkaGjAUf6eBdhboRFx-16" value="Customize" style="whiteSpace=wrap;html=1;rounded=1;glass=0;strokeWidth=1;shadow=0;" parent="WIyWlLk6GJQsqaUBKTNV-1" vertex="1"><mxGeometry x="-548" y="581" width="120" height="60" as="geometry"/></mxCell><mxCell id="A3fkaGjAUf6eBdhboRFx-17" value="Combo2" style="whiteSpace=wrap;html=1;rounded=1;glass=0;strokeWidth=1;shadow=0;" parent="WIyWlLk6GJQsqaUBKTNV-1" vertex="1"><mxGeometry x="-387" y="432" width="120" height="60" as="geometry"/></mxCell><mxCell id="A3fkaGjAUf6eBdhboRFx-18" value="Combo1" style="whiteSpace=wrap;html=1;rounded=1;glass=0;strokeWidth=1;shadow=0;" parent="WIyWlLk6GJQsqaUBKTNV-1" vertex="1"><mxGeometry x="-525" y="432" width="120" height="62" as="geometry"/></mxCell><mxCell id="A3fkaGjAUf6eBdhboRFx-61" style="rounded=0;orthogonalLoop=1;jettySize=auto;html=1;endArrow=classic;endFill=1;exitX=1;exitY=0.5;exitDx=0;exitDy=0;edgeStyle=orthogonalEdgeStyle;entryX=0.158;entryY=1.034;entryDx=0;entryDy=0;entryPerimeter=0;" parent="WIyWlLk6GJQsqaUBKTNV-1" source="A3fkaGjAUf6eBdhboRFx-19" target="A3fkaGjAUf6eBdhboRFx-0" edge="1"><mxGeometry relative="1" as="geometry"><mxPoint x="5" y="229" as="targetPoint"/></mxGeometry></mxCell><mxCell id="A3fkaGjAUf6eBdhboRFx-19" value="Checkout" style="whiteSpace=wrap;html=1;rounded=1;glass=0;strokeWidth=1;shadow=0;" parent="WIyWlLk6GJQsqaUBKTNV-1" vertex="1"><mxGeometry x="-182" y="590" width="120" height="60" as="geometry"/></mxCell><mxCell id="A3fkaGjAUf6eBdhboRFx-48" style="edgeStyle=orthogonalEdgeStyle;rounded=0;orthogonalLoop=1;jettySize=auto;html=1;exitX=0.5;exitY=1;exitDx=0;exitDy=0;entryX=0;entryY=0.5;entryDx=0;entryDy=0;endArrow=classic;endFill=1;" parent="WIyWlLk6GJQsqaUBKTNV-1" source="A3fkaGjAUf6eBdhboRFx-20" target="A3fkaGjAUf6eBdhboRFx-5" edge="1"><mxGeometry relative="1" as="geometry"><mxPoint x="-323" y="281" as="targetPoint"/><Array as="points"><mxPoint x="-305" y="723"/><mxPoint x="-599" y="723"/><mxPoint x="-599" y="281"/></Array></mxGeometry></mxCell><mxCell id="A3fkaGjAUf6eBdhboRFx-20" value="Add to Order" style="whiteSpace=wrap;html=1;rounded=1;glass=0;strokeWidth=1;shadow=0;" parent="WIyWlLk6GJQsqaUBKTNV-1" vertex="1"><mxGeometry x="-365" y="643" width="120" height="60" as="geometry"/></mxCell><mxCell id="A3fkaGjAUf6eBdhboRFx-28" value="" style="endArrow=classic;html=1;rounded=0;entryX=0.5;entryY=0;entryDx=0;entryDy=0;" parent="WIyWlLk6GJQsqaUBKTNV-1" target="A3fkaGjAUf6eBdhboRFx-20" edge="1"><mxGeometry width="50" height="50" relative="1" as="geometry"><mxPoint x="-330" y="490" as="sourcePoint"/><mxPoint x="-280" y="440" as="targetPoint"/></mxGeometry></mxCell><mxCell id="A3fkaGjAUf6eBdhboRFx-29" value="" style="endArrow=classic;html=1;rounded=0;entryX=0.5;entryY=0;entryDx=0;entryDy=0;" parent="WIyWlLk6GJQsqaUBKTNV-1" target="A3fkaGjAUf6eBdhboRFx-16" edge="1"><mxGeometry width="50" height="50" relative="1" as="geometry"><mxPoint x="-329" y="492" as="sourcePoint"/><mxPoint x="-309" y="645" as="targetPoint"/></mxGeometry></mxCell><mxCell id="A3fkaGjAUf6eBdhboRFx-30" value="" style="endArrow=classic;html=1;rounded=0;" parent="WIyWlLk6GJQsqaUBKTNV-1" edge="1"><mxGeometry width="50" height="50" relative="1" as="geometry"><mxPoint x="-470" y="492" as="sourcePoint"/><mxPoint x="-323" y="645" as="targetPoint"/></mxGeometry></mxCell><mxCell id="A3fkaGjAUf6eBdhboRFx-31" value="" style="endArrow=classic;html=1;rounded=0;entryX=0.25;entryY=0;entryDx=0;entryDy=0;" parent="WIyWlLk6GJQsqaUBKTNV-1" target="A3fkaGjAUf6eBdhboRFx-16" edge="1"><mxGeometry width="50" height="50" relative="1" as="geometry"><mxPoint x="-469" y="492" as="sourcePoint"/><mxPoint x="-444" y="645" as="targetPoint"/></mxGeometry></mxCell><mxCell id="A3fkaGjAUf6eBdhboRFx-49" style="edgeStyle=orthogonalEdgeStyle;rounded=0;orthogonalLoop=1;jettySize=auto;html=1;exitX=0;exitY=0.5;exitDx=0;exitDy=0;entryX=0;entryY=0.5;entryDx=0;entryDy=0;endArrow=classic;endFill=1;" parent="WIyWlLk6GJQsqaUBKTNV-1" source="A3fkaGjAUf6eBdhboRFx-37" target="A3fkaGjAUf6eBdhboRFx-11" edge="1"><mxGeometry relative="1" as="geometry"><Array as="points"><mxPoint x="-197" y="473"/><mxPoint x="-197" y="381"/></Array></mxGeometry></mxCell><mxCell id="A3fkaGjAUf6eBdhboRFx-37" value="Add to Order" style="whiteSpace=wrap;html=1;rounded=1;glass=0;strokeWidth=1;shadow=0;" parent="WIyWlLk6GJQsqaUBKTNV-1" vertex="1"><mxGeometry x="-171" y="443" width="120" height="60" as="geometry"/></mxCell><mxCell id="A3fkaGjAUf6eBdhboRFx-55" style="edgeStyle=orthogonalEdgeStyle;rounded=0;orthogonalLoop=1;jettySize=auto;html=1;exitX=0.5;exitY=1;exitDx=0;exitDy=0;endArrow=classic;endFill=1;" parent="WIyWlLk6GJQsqaUBKTNV-1" source="A3fkaGjAUf6eBdhboRFx-52" target="WIyWlLk6GJQsqaUBKTNV-3" edge="1"><mxGeometry relative="1" as="geometry"><Array as="points"/></mxGeometry></mxCell><mxCell id="A3fkaGjAUf6eBdhboRFx-52" value="START" style="rounded=1;whiteSpace=wrap;html=1;" parent="WIyWlLk6GJQsqaUBKTNV-1" vertex="1"><mxGeometry x="-16" y="35" width="90" height="39" as="geometry"/></mxCell><mxCell id="A3fkaGjAUf6eBdhboRFx-65" value="END" style="rounded=1;whiteSpace=wrap;html=1;" parent="WIyWlLk6GJQsqaUBKTNV-1" vertex="1"><mxGeometry x="-16" y="755" width="90" height="39" as="geometry"/></mxCell><mxCell id="A3fkaGjAUf6eBdhboRFx-67" style="edgeStyle=orthogonalEdgeStyle;rounded=0;orthogonalLoop=1;jettySize=auto;html=1;entryX=0.5;entryY=0;entryDx=0;entryDy=0;endArrow=classic;endFill=1;" parent="WIyWlLk6GJQsqaUBKTNV-1" source="A3fkaGjAUf6eBdhboRFx-66" target="A3fkaGjAUf6eBdhboRFx-65" edge="1"><mxGeometry relative="1" as="geometry"/></mxCell><mxCell id="A3fkaGjAUf6eBdhboRFx-66" value="Shutdown" style="whiteSpace=wrap;html=1;rounded=1;glass=0;strokeWidth=1;shadow=0;" parent="WIyWlLk6GJQsqaUBKTNV-1" vertex="1"><mxGeometry x="-31" y="670" width="120" height="60" as="geometry"/></mxCell><mxCell id="0" value="&lt;font style=&quot;font-size: 24px&quot;&gt;Char-Cuties Charcuterie&lt;/font&gt;" style="whiteSpace=wrap;html=1;rounded=1;glass=0;strokeWidth=1;shadow=0;" vertex="1" parent="WIyWlLk6GJQsqaUBKTNV-1"><mxGeometry x="-740" y="15" width="375" height="150" as="geometry"/></mxCell></root></mxGraphModel></diagram></mxfile>